<svg xmlns="http://www.w3.org/2000/svg" xmlns:xlink="http://www.w3.org/1999/xlink" width="1000" zoomAndPan="magnify" viewBox="0 0 750 749.999995" height="1000" preserveAspectRatio="xMidYMid meet" version="1.0"><defs><clipPath id="e9b9aa9b15"><path d="M 125 300 L 148 300 L 148 322.078125 L 125 322.078125 Z M 125 300 " clip-rule="nonzero"/></clipPath><clipPath id="1b2a53cb66"><path d="M 157 300 L 180 300 L 180 322.078125 L 157 322.078125 Z M 157 300 " clip-rule="nonzero"/></clipPath><clipPath id="e40e47b5d0"><path d="M 189 300 L 211 300 L 211 322.078125 L 189 322.078125 Z M 189 300 " clip-rule="nonzero"/></clipPath><clipPath id="9dbdcf6eff"><path d="M 221 300 L 243 300 L 243 322.078125 L 221 322.078125 Z M 221 300 " clip-rule="nonzero"/></clipPath><clipPath id="aee615c252"><path d="M 253 300 L 275 300 L 275 322.078125 L 253 322.078125 Z M 253 300 " clip-rule="nonzero"/></clipPath><clipPath id="5b89342f3b"><path d="M 284 300 L 307 300 L 307 322.078125 L 284 322.078125 Z M 284 300 " clip-rule="nonzero"/></clipPath><clipPath id="69155e6379"><path d="M 316 300 L 339 300 L 339 322.078125 L 316 322.078125 Z M 316 300 " clip-rule="nonzero"/></clipPath><clipPath id="be88447ec2"><path d="M 348 300 L 371 300 L 371 322.078125 L 348 322.078125 Z M 348 300 " clip-rule="nonzero"/></clipPath><clipPath id="d110e0cf04"><path d="M 380 300 L 403 300 L 403 322.078125 L 380 322.078125 Z M 380 300 " clip-rule="nonzero"/></clipPath><clipPath id="f85f82c91c"><path d="M 412 182.578125 L 434 182.578125 L 434 204 L 412 204 Z M 412 182.578125 " clip-rule="nonzero"/></clipPath><clipPath id="f75d92cb24"><path d="M 412 300 L 434 300 L 434 322.078125 L 412 322.078125 Z M 412 300 " clip-rule="nonzero"/></clipPath><clipPath id="aa5adcf53f"><path d="M 444 300 L 466 300 L 466 322.078125 L 444 322.078125 Z M 444 300 " clip-rule="nonzero"/></clipPath><clipPath id="9cb3c20e94"><path d="M 476 300 L 498 300 L 498 322.078125 L 476 322.078125 Z M 476 300 " clip-rule="nonzero"/></clipPath><clipPath id="a72ca92824"><path d="M 507 300 L 530 300 L 530 322.078125 L 507 322.078125 Z M 507 300 " clip-rule="nonzero"/></clipPath><clipPath id="4de9a717d6"><path d="M 539 300 L 562 300 L 562 322.078125 L 539 322.078125 Z M 539 300 " clip-rule="nonzero"/></clipPath><clipPath id="e6ba70a400"><path d="M 571 300 L 594 300 L 594 322.078125 L 571 322.078125 Z M 571 300 " clip-rule="nonzero"/></clipPath><clipPath id="30ba1f0a3e"><path d="M 603 300 L 625 300 L 625 322.078125 L 603 322.078125 Z M 603 300 " clip-rule="nonzero"/></clipPath><clipPath id="2a5e3d6504"><path d="M 125 392 L 148 392 L 148 413.960938 L 125 413.960938 Z M 125 392 " clip-rule="nonzero"/></clipPath><clipPath id="82b874c899"><path d="M 157 392 L 180 392 L 180 413.960938 L 157 413.960938 Z M 157 392 " clip-rule="nonzero"/></clipPath><clipPath id="c675b8b53d"><path d="M 189 392 L 211 392 L 211 413.960938 L 189 413.960938 Z M 189 392 " clip-rule="nonzero"/></clipPath><clipPath id="922602a99b"><path d="M 221 392 L 243 392 L 243 413.960938 L 221 413.960938 Z M 221 392 " clip-rule="nonzero"/></clipPath><clipPath id="4d60a21d7b"><path d="M 253 392 L 275 392 L 275 413.960938 L 253 413.960938 Z M 253 392 " clip-rule="nonzero"/></clipPath><clipPath id="a15431cfbb"><path d="M 284 392 L 307 392 L 307 413.960938 L 284 413.960938 Z M 284 392 " clip-rule="nonzero"/></clipPath><clipPath id="89ce55fa09"><path d="M 316 392 L 339 392 L 339 413.960938 L 316 413.960938 Z M 316 392 " clip-rule="nonzero"/></clipPath><clipPath id="b56bed0ff0"><path d="M 348 392 L 371 392 L 371 413.960938 L 348 413.960938 Z M 348 392 " clip-rule="nonzero"/></clipPath><clipPath id="6dff91e7d9"><path d="M 380 392 L 403 392 L 403 413.960938 L 380 413.960938 Z M 380 392 " clip-rule="nonzero"/></clipPath><clipPath id="4e50bf8cc4"><path d="M 412 274.460938 L 434 274.460938 L 434 296 L 412 296 Z M 412 274.460938 " clip-rule="nonzero"/></clipPath><clipPath id="f10660eaee"><path d="M 412 392 L 434 392 L 434 413.960938 L 412 413.960938 Z M 412 392 " clip-rule="nonzero"/></clipPath><clipPath id="da4378aa26"><path d="M 444 392 L 466 392 L 466 413.960938 L 444 413.960938 Z M 444 392 " clip-rule="nonzero"/></clipPath><clipPath id="90a1b7a70a"><path d="M 476 392 L 498 392 L 498 413.960938 L 476 413.960938 Z M 476 392 " clip-rule="nonzero"/></clipPath><clipPath id="2690204192"><path d="M 507 392 L 530 392 L 530 413.960938 L 507 413.960938 Z M 507 392 " clip-rule="nonzero"/></clipPath><clipPath id="3077cf23e6"><path d="M 539 392 L 562 392 L 562 413.960938 L 539 413.960938 Z M 539 392 " clip-rule="nonzero"/></clipPath><clipPath id="a9589533e8"><path d="M 571 392 L 594 392 L 594 413.960938 L 571 413.960938 Z M 571 392 " clip-rule="nonzero"/></clipPath><clipPath id="6cd7a5342d"><path d="M 603 392 L 625 392 L 625 413.960938 L 603 413.960938 Z M 603 392 " clip-rule="nonzero"/></clipPath><clipPath id="87d65d3626"><path d="M 125 493 L 148 493 L 148 514.5 L 125 514.5 Z M 125 493 " clip-rule="nonzero"/></clipPath><clipPath id="aeadfc3937"><path d="M 157 493 L 180 493 L 180 514.5 L 157 514.5 Z M 157 493 " clip-rule="nonzero"/></clipPath><clipPath id="4fba0fa769"><path d="M 189 493 L 211 493 L 211 514.5 L 189 514.5 Z M 189 493 " clip-rule="nonzero"/></clipPath><clipPath id="286faefee3"><path d="M 221 493 L 243 493 L 243 514.5 L 221 514.5 Z M 221 493 " clip-rule="nonzero"/></clipPath><clipPath id="267902a010"><path d="M 253 493 L 275 493 L 275 514.5 L 253 514.5 Z M 253 493 " clip-rule="nonzero"/></clipPath><clipPath id="e1b4ae3cce"><path d="M 284 493 L 307 493 L 307 514.5 L 284 514.5 Z M 284 493 " clip-rule="nonzero"/></clipPath><clipPath id="6874529909"><path d="M 316 493 L 339 493 L 339 514.5 L 316 514.5 Z M 316 493 " clip-rule="nonzero"/></clipPath><clipPath id="9dc0e50bdf"><path d="M 348 493 L 371 493 L 371 514.5 L 348 514.5 Z M 348 493 " clip-rule="nonzero"/></clipPath><clipPath id="28b9fcbbd9"><path d="M 380 493 L 403 493 L 403 514.5 L 380 514.5 Z M 380 493 " clip-rule="nonzero"/></clipPath><clipPath id="0fc13eb2c6"><path d="M 412 375 L 434 375 L 434 397 L 412 397 Z M 412 375 " clip-rule="nonzero"/></clipPath><clipPath id="b78da9b6a1"><path d="M 412 493 L 434 493 L 434 514.5 L 412 514.5 Z M 412 493 " clip-rule="nonzero"/></clipPath><clipPath id="f676900947"><path d="M 444 493 L 466 493 L 466 514.5 L 444 514.5 Z M 444 493 " clip-rule="nonzero"/></clipPath><clipPath id="59cc8a9310"><path d="M 476 493 L 498 493 L 498 514.5 L 476 514.5 Z M 476 493 " clip-rule="nonzero"/></clipPath><clipPath id="510c012308"><path d="M 507 493 L 530 493 L 530 514.5 L 507 514.5 Z M 507 493 " clip-rule="nonzero"/></clipPath><clipPath id="b470c92b62"><path d="M 539 493 L 562 493 L 562 514.5 L 539 514.5 Z M 539 493 " clip-rule="nonzero"/></clipPath><clipPath id="de5f369c1b"><path d="M 571 493 L 594 493 L 594 514.5 L 571 514.5 Z M 571 493 " clip-rule="nonzero"/></clipPath><clipPath id="9feedc93cc"><path d="M 603 493 L 625 493 L 625 514.5 L 603 514.5 Z M 603 493 " clip-rule="nonzero"/></clipPath></defs><g clip-path="url(#e9b9aa9b15)"><path fill="#ffde59" d="M 125.664062 300.691406 L 147.230469 300.691406 L 147.230469 322.265625 L 125.664062 322.265625 Z M 125.664062 300.691406 " fill-opacity="1" fill-rule="nonzero"/></g><path fill="#ffde59" d="M 157.546875 271.117188 L 179.113281 271.117188 L 179.113281 292.691406 L 157.546875 292.691406 Z M 157.546875 271.117188 " fill-opacity="1" fill-rule="nonzero"/><g clip-path="url(#1b2a53cb66)"><path fill="#ffde59" d="M 157.546875 300.691406 L 179.113281 300.691406 L 179.113281 322.265625 L 157.546875 322.265625 Z M 157.546875 300.691406 " fill-opacity="1" fill-rule="nonzero"/></g><path fill="#ffde59" d="M 189.433594 241.542969 L 211 241.542969 L 211 263.117188 L 189.433594 263.117188 Z M 189.433594 241.542969 " fill-opacity="1" fill-rule="nonzero"/><path fill="#ffde59" d="M 189.433594 271.117188 L 211 271.117188 L 211 292.691406 L 189.433594 292.691406 Z M 189.433594 271.117188 " fill-opacity="1" fill-rule="nonzero"/><g clip-path="url(#e40e47b5d0)"><path fill="#ffde59" d="M 189.433594 300.691406 L 211 300.691406 L 211 322.265625 L 189.433594 322.265625 Z M 189.433594 300.691406 " fill-opacity="1" fill-rule="nonzero"/></g><path fill="#ffde59" d="M 221.226562 211.96875 L 242.792969 211.96875 L 242.792969 233.542969 L 221.226562 233.542969 Z M 221.226562 211.96875 " fill-opacity="1" fill-rule="nonzero"/><path fill="#ffde59" d="M 221.226562 241.542969 L 242.792969 241.542969 L 242.792969 263.117188 L 221.226562 263.117188 Z M 221.226562 241.542969 " fill-opacity="1" fill-rule="nonzero"/><path fill="#ffde59" d="M 221.226562 271.117188 L 242.792969 271.117188 L 242.792969 292.691406 L 221.226562 292.691406 Z M 221.226562 271.117188 " fill-opacity="1" fill-rule="nonzero"/><g clip-path="url(#9dbdcf6eff)"><path fill="#ffde59" d="M 221.226562 300.691406 L 242.792969 300.691406 L 242.792969 322.265625 L 221.226562 322.265625 Z M 221.226562 300.691406 " fill-opacity="1" fill-rule="nonzero"/></g><path fill="#ffde59" d="M 253.113281 271.117188 L 274.679688 271.117188 L 274.679688 292.691406 L 253.113281 292.691406 Z M 253.113281 271.117188 " fill-opacity="1" fill-rule="nonzero"/><g clip-path="url(#aee615c252)"><path fill="#ffde59" d="M 253.113281 300.691406 L 274.679688 300.691406 L 274.679688 322.265625 L 253.113281 322.265625 Z M 253.113281 300.691406 " fill-opacity="1" fill-rule="nonzero"/></g><path fill="#ffde59" d="M 284.90625 241.542969 L 306.472656 241.542969 L 306.472656 263.117188 L 284.90625 263.117188 Z M 284.90625 241.542969 " fill-opacity="1" fill-rule="nonzero"/><path fill="#ffde59" d="M 284.90625 271.117188 L 306.472656 271.117188 L 306.472656 292.691406 L 284.90625 292.691406 Z M 284.90625 271.117188 " fill-opacity="1" fill-rule="nonzero"/><g clip-path="url(#5b89342f3b)"><path fill="#ffde59" d="M 284.90625 300.691406 L 306.472656 300.691406 L 306.472656 322.265625 L 284.90625 322.265625 Z M 284.90625 300.691406 " fill-opacity="1" fill-rule="nonzero"/></g><path fill="#ffde59" d="M 316.789062 271.117188 L 338.355469 271.117188 L 338.355469 292.691406 L 316.789062 292.691406 Z M 316.789062 271.117188 " fill-opacity="1" fill-rule="nonzero"/><g clip-path="url(#69155e6379)"><path fill="#ffde59" d="M 316.789062 300.691406 L 338.355469 300.691406 L 338.355469 322.265625 L 316.789062 322.265625 Z M 316.789062 300.691406 " fill-opacity="1" fill-rule="nonzero"/></g><path fill="#ffde59" d="M 348.675781 211.96875 L 370.242188 211.96875 L 370.242188 233.542969 L 348.675781 233.542969 Z M 348.675781 211.96875 " fill-opacity="1" fill-rule="nonzero"/><path fill="#ffde59" d="M 348.675781 241.542969 L 370.242188 241.542969 L 370.242188 263.117188 L 348.675781 263.117188 Z M 348.675781 241.542969 " fill-opacity="1" fill-rule="nonzero"/><path fill="#ffde59" d="M 348.675781 271.117188 L 370.242188 271.117188 L 370.242188 292.691406 L 348.675781 292.691406 Z M 348.675781 271.117188 " fill-opacity="1" fill-rule="nonzero"/><g clip-path="url(#be88447ec2)"><path fill="#ffde59" d="M 348.675781 300.691406 L 370.242188 300.691406 L 370.242188 322.265625 L 348.675781 322.265625 Z M 348.675781 300.691406 " fill-opacity="1" fill-rule="nonzero"/></g><path fill="#ffde59" d="M 380.46875 241.542969 L 402.035156 241.542969 L 402.035156 263.117188 L 380.46875 263.117188 Z M 380.46875 241.542969 " fill-opacity="1" fill-rule="nonzero"/><path fill="#ffde59" d="M 380.46875 271.117188 L 402.035156 271.117188 L 402.035156 292.691406 L 380.46875 292.691406 Z M 380.46875 271.117188 " fill-opacity="1" fill-rule="nonzero"/><g clip-path="url(#d110e0cf04)"><path fill="#ffde59" d="M 380.46875 300.691406 L 402.035156 300.691406 L 402.035156 322.265625 L 380.46875 322.265625 Z M 380.46875 300.691406 " fill-opacity="1" fill-rule="nonzero"/></g><g clip-path="url(#f85f82c91c)"><path fill="#ffde59" d="M 412.355469 182.300781 L 433.921875 182.300781 L 433.921875 203.875 L 412.355469 203.875 Z M 412.355469 182.300781 " fill-opacity="1" fill-rule="nonzero"/></g><path fill="#ffde59" d="M 412.355469 211.96875 L 433.921875 211.96875 L 433.921875 233.542969 L 412.355469 233.542969 Z M 412.355469 211.96875 " fill-opacity="1" fill-rule="nonzero"/><path fill="#ffde59" d="M 412.355469 241.542969 L 433.921875 241.542969 L 433.921875 263.117188 L 412.355469 263.117188 Z M 412.355469 241.542969 " fill-opacity="1" fill-rule="nonzero"/><path fill="#ffde59" d="M 412.355469 271.117188 L 433.921875 271.117188 L 433.921875 292.691406 L 412.355469 292.691406 Z M 412.355469 271.117188 " fill-opacity="1" fill-rule="nonzero"/><g clip-path="url(#f75d92cb24)"><path fill="#ffde59" d="M 412.355469 300.691406 L 433.921875 300.691406 L 433.921875 322.265625 L 412.355469 322.265625 Z M 412.355469 300.691406 " fill-opacity="1" fill-rule="nonzero"/></g><path fill="#ffde59" d="M 444.148438 211.96875 L 465.714844 211.96875 L 465.714844 233.542969 L 444.148438 233.542969 Z M 444.148438 211.96875 " fill-opacity="1" fill-rule="nonzero"/><path fill="#ffde59" d="M 444.148438 241.542969 L 465.714844 241.542969 L 465.714844 263.117188 L 444.148438 263.117188 Z M 444.148438 241.542969 " fill-opacity="1" fill-rule="nonzero"/><path fill="#ffde59" d="M 444.148438 271.117188 L 465.714844 271.117188 L 465.714844 292.691406 L 444.148438 292.691406 Z M 444.148438 271.117188 " fill-opacity="1" fill-rule="nonzero"/><g clip-path="url(#aa5adcf53f)"><path fill="#ffde59" d="M 444.148438 300.691406 L 465.714844 300.691406 L 465.714844 322.265625 L 444.148438 322.265625 Z M 444.148438 300.691406 " fill-opacity="1" fill-rule="nonzero"/></g><path fill="#ffde59" d="M 476.03125 271.117188 L 497.597656 271.117188 L 497.597656 292.691406 L 476.03125 292.691406 Z M 476.03125 271.117188 " fill-opacity="1" fill-rule="nonzero"/><g clip-path="url(#9cb3c20e94)"><path fill="#ffde59" d="M 476.03125 300.691406 L 497.597656 300.691406 L 497.597656 322.265625 L 476.03125 322.265625 Z M 476.03125 300.691406 " fill-opacity="1" fill-rule="nonzero"/></g><path fill="#ffde59" d="M 507.824219 241.542969 L 529.390625 241.542969 L 529.390625 263.117188 L 507.824219 263.117188 Z M 507.824219 241.542969 " fill-opacity="1" fill-rule="nonzero"/><path fill="#ffde59" d="M 507.824219 271.117188 L 529.390625 271.117188 L 529.390625 292.691406 L 507.824219 292.691406 Z M 507.824219 271.117188 " fill-opacity="1" fill-rule="nonzero"/><g clip-path="url(#a72ca92824)"><path fill="#ffde59" d="M 507.824219 300.691406 L 529.390625 300.691406 L 529.390625 322.265625 L 507.824219 322.265625 Z M 507.824219 300.691406 " fill-opacity="1" fill-rule="nonzero"/></g><path fill="#ffde59" d="M 539.710938 211.96875 L 561.277344 211.96875 L 561.277344 233.542969 L 539.710938 233.542969 Z M 539.710938 211.96875 " fill-opacity="1" fill-rule="nonzero"/><path fill="#ffde59" d="M 539.710938 241.542969 L 561.277344 241.542969 L 561.277344 263.117188 L 539.710938 263.117188 Z M 539.710938 241.542969 " fill-opacity="1" fill-rule="nonzero"/><path fill="#ffde59" d="M 539.710938 271.117188 L 561.277344 271.117188 L 561.277344 292.691406 L 539.710938 292.691406 Z M 539.710938 271.117188 " fill-opacity="1" fill-rule="nonzero"/><g clip-path="url(#4de9a717d6)"><path fill="#ffde59" d="M 539.710938 300.691406 L 561.277344 300.691406 L 561.277344 322.265625 L 539.710938 322.265625 Z M 539.710938 300.691406 " fill-opacity="1" fill-rule="nonzero"/></g><path fill="#ffde59" d="M 571.597656 271.117188 L 593.164062 271.117188 L 593.164062 292.691406 L 571.597656 292.691406 Z M 571.597656 271.117188 " fill-opacity="1" fill-rule="nonzero"/><g clip-path="url(#e6ba70a400)"><path fill="#ffde59" d="M 571.597656 300.691406 L 593.164062 300.691406 L 593.164062 322.265625 L 571.597656 322.265625 Z M 571.597656 300.691406 " fill-opacity="1" fill-rule="nonzero"/></g><g clip-path="url(#30ba1f0a3e)"><path fill="#ffde59" d="M 603.390625 300.691406 L 624.957031 300.691406 L 624.957031 322.265625 L 603.390625 322.265625 Z M 603.390625 300.691406 " fill-opacity="1" fill-rule="nonzero"/></g><g clip-path="url(#2a5e3d6504)"><path fill="#000000" d="M 125.664062 392.570312 L 147.230469 392.570312 L 147.230469 414.148438 L 125.664062 414.148438 Z M 125.664062 392.570312 " fill-opacity="1" fill-rule="nonzero"/></g><path fill="#000000" d="M 157.546875 362.996094 L 179.113281 362.996094 L 179.113281 384.574219 L 157.546875 384.574219 Z M 157.546875 362.996094 " fill-opacity="1" fill-rule="nonzero"/><g clip-path="url(#82b874c899)"><path fill="#000000" d="M 157.546875 392.570312 L 179.113281 392.570312 L 179.113281 414.148438 L 157.546875 414.148438 Z M 157.546875 392.570312 " fill-opacity="1" fill-rule="nonzero"/></g><path fill="#000000" d="M 189.433594 333.421875 L 211 333.421875 L 211 355 L 189.433594 355 Z M 189.433594 333.421875 " fill-opacity="1" fill-rule="nonzero"/><path fill="#000000" d="M 189.433594 362.996094 L 211 362.996094 L 211 384.574219 L 189.433594 384.574219 Z M 189.433594 362.996094 " fill-opacity="1" fill-rule="nonzero"/><g clip-path="url(#c675b8b53d)"><path fill="#000000" d="M 189.433594 392.570312 L 211 392.570312 L 211 414.148438 L 189.433594 414.148438 Z M 189.433594 392.570312 " fill-opacity="1" fill-rule="nonzero"/></g><path fill="#000000" d="M 221.226562 303.847656 L 242.792969 303.847656 L 242.792969 325.425781 L 221.226562 325.425781 Z M 221.226562 303.847656 " fill-opacity="1" fill-rule="nonzero"/><path fill="#000000" d="M 221.226562 333.421875 L 242.792969 333.421875 L 242.792969 355 L 221.226562 355 Z M 221.226562 333.421875 " fill-opacity="1" fill-rule="nonzero"/><path fill="#000000" d="M 221.226562 362.996094 L 242.792969 362.996094 L 242.792969 384.574219 L 221.226562 384.574219 Z M 221.226562 362.996094 " fill-opacity="1" fill-rule="nonzero"/><g clip-path="url(#922602a99b)"><path fill="#000000" d="M 221.226562 392.570312 L 242.792969 392.570312 L 242.792969 414.148438 L 221.226562 414.148438 Z M 221.226562 392.570312 " fill-opacity="1" fill-rule="nonzero"/></g><path fill="#000000" d="M 253.113281 362.996094 L 274.679688 362.996094 L 274.679688 384.574219 L 253.113281 384.574219 Z M 253.113281 362.996094 " fill-opacity="1" fill-rule="nonzero"/><g clip-path="url(#4d60a21d7b)"><path fill="#000000" d="M 253.113281 392.570312 L 274.679688 392.570312 L 274.679688 414.148438 L 253.113281 414.148438 Z M 253.113281 392.570312 " fill-opacity="1" fill-rule="nonzero"/></g><path fill="#000000" d="M 284.90625 333.421875 L 306.472656 333.421875 L 306.472656 355 L 284.90625 355 Z M 284.90625 333.421875 " fill-opacity="1" fill-rule="nonzero"/><path fill="#000000" d="M 284.90625 362.996094 L 306.472656 362.996094 L 306.472656 384.574219 L 284.90625 384.574219 Z M 284.90625 362.996094 " fill-opacity="1" fill-rule="nonzero"/><g clip-path="url(#a15431cfbb)"><path fill="#000000" d="M 284.90625 392.570312 L 306.472656 392.570312 L 306.472656 414.148438 L 284.90625 414.148438 Z M 284.90625 392.570312 " fill-opacity="1" fill-rule="nonzero"/></g><path fill="#000000" d="M 316.789062 362.996094 L 338.355469 362.996094 L 338.355469 384.574219 L 316.789062 384.574219 Z M 316.789062 362.996094 " fill-opacity="1" fill-rule="nonzero"/><g clip-path="url(#89ce55fa09)"><path fill="#000000" d="M 316.789062 392.570312 L 338.355469 392.570312 L 338.355469 414.148438 L 316.789062 414.148438 Z M 316.789062 392.570312 " fill-opacity="1" fill-rule="nonzero"/></g><path fill="#000000" d="M 348.675781 303.847656 L 370.242188 303.847656 L 370.242188 325.425781 L 348.675781 325.425781 Z M 348.675781 303.847656 " fill-opacity="1" fill-rule="nonzero"/><path fill="#000000" d="M 348.675781 333.421875 L 370.242188 333.421875 L 370.242188 355 L 348.675781 355 Z M 348.675781 333.421875 " fill-opacity="1" fill-rule="nonzero"/><path fill="#000000" d="M 348.675781 362.996094 L 370.242188 362.996094 L 370.242188 384.574219 L 348.675781 384.574219 Z M 348.675781 362.996094 " fill-opacity="1" fill-rule="nonzero"/><g clip-path="url(#b56bed0ff0)"><path fill="#000000" d="M 348.675781 392.570312 L 370.242188 392.570312 L 370.242188 414.148438 L 348.675781 414.148438 Z M 348.675781 392.570312 " fill-opacity="1" fill-rule="nonzero"/></g><path fill="#000000" d="M 380.46875 333.421875 L 402.035156 333.421875 L 402.035156 355 L 380.46875 355 Z M 380.46875 333.421875 " fill-opacity="1" fill-rule="nonzero"/><path fill="#000000" d="M 380.46875 362.996094 L 402.035156 362.996094 L 402.035156 384.574219 L 380.46875 384.574219 Z M 380.46875 362.996094 " fill-opacity="1" fill-rule="nonzero"/><g clip-path="url(#6dff91e7d9)"><path fill="#000000" d="M 380.46875 392.570312 L 402.035156 392.570312 L 402.035156 414.148438 L 380.46875 414.148438 Z M 380.46875 392.570312 " fill-opacity="1" fill-rule="nonzero"/></g><g clip-path="url(#4e50bf8cc4)"><path fill="#000000" d="M 412.355469 274.183594 L 433.921875 274.183594 L 433.921875 295.757812 L 412.355469 295.757812 Z M 412.355469 274.183594 " fill-opacity="1" fill-rule="nonzero"/></g><path fill="#000000" d="M 412.355469 303.847656 L 433.921875 303.847656 L 433.921875 325.425781 L 412.355469 325.425781 Z M 412.355469 303.847656 " fill-opacity="1" fill-rule="nonzero"/><path fill="#000000" d="M 412.355469 333.421875 L 433.921875 333.421875 L 433.921875 355 L 412.355469 355 Z M 412.355469 333.421875 " fill-opacity="1" fill-rule="nonzero"/><path fill="#000000" d="M 412.355469 362.996094 L 433.921875 362.996094 L 433.921875 384.574219 L 412.355469 384.574219 Z M 412.355469 362.996094 " fill-opacity="1" fill-rule="nonzero"/><g clip-path="url(#f10660eaee)"><path fill="#000000" d="M 412.355469 392.570312 L 433.921875 392.570312 L 433.921875 414.148438 L 412.355469 414.148438 Z M 412.355469 392.570312 " fill-opacity="1" fill-rule="nonzero"/></g><path fill="#000000" d="M 444.148438 303.847656 L 465.714844 303.847656 L 465.714844 325.425781 L 444.148438 325.425781 Z M 444.148438 303.847656 " fill-opacity="1" fill-rule="nonzero"/><path fill="#000000" d="M 444.148438 333.421875 L 465.714844 333.421875 L 465.714844 355 L 444.148438 355 Z M 444.148438 333.421875 " fill-opacity="1" fill-rule="nonzero"/><path fill="#000000" d="M 444.148438 362.996094 L 465.714844 362.996094 L 465.714844 384.574219 L 444.148438 384.574219 Z M 444.148438 362.996094 " fill-opacity="1" fill-rule="nonzero"/><g clip-path="url(#da4378aa26)"><path fill="#000000" d="M 444.148438 392.570312 L 465.714844 392.570312 L 465.714844 414.148438 L 444.148438 414.148438 Z M 444.148438 392.570312 " fill-opacity="1" fill-rule="nonzero"/></g><path fill="#000000" d="M 476.03125 362.996094 L 497.597656 362.996094 L 497.597656 384.574219 L 476.03125 384.574219 Z M 476.03125 362.996094 " fill-opacity="1" fill-rule="nonzero"/><g clip-path="url(#90a1b7a70a)"><path fill="#000000" d="M 476.03125 392.570312 L 497.597656 392.570312 L 497.597656 414.148438 L 476.03125 414.148438 Z M 476.03125 392.570312 " fill-opacity="1" fill-rule="nonzero"/></g><path fill="#000000" d="M 507.824219 333.421875 L 529.390625 333.421875 L 529.390625 355 L 507.824219 355 Z M 507.824219 333.421875 " fill-opacity="1" fill-rule="nonzero"/><path fill="#000000" d="M 507.824219 362.996094 L 529.390625 362.996094 L 529.390625 384.574219 L 507.824219 384.574219 Z M 507.824219 362.996094 " fill-opacity="1" fill-rule="nonzero"/><g clip-path="url(#2690204192)"><path fill="#000000" d="M 507.824219 392.570312 L 529.390625 392.570312 L 529.390625 414.148438 L 507.824219 414.148438 Z M 507.824219 392.570312 " fill-opacity="1" fill-rule="nonzero"/></g><path fill="#000000" d="M 539.710938 303.847656 L 561.277344 303.847656 L 561.277344 325.425781 L 539.710938 325.425781 Z M 539.710938 303.847656 " fill-opacity="1" fill-rule="nonzero"/><path fill="#000000" d="M 539.710938 333.421875 L 561.277344 333.421875 L 561.277344 355 L 539.710938 355 Z M 539.710938 333.421875 " fill-opacity="1" fill-rule="nonzero"/><path fill="#000000" d="M 539.710938 362.996094 L 561.277344 362.996094 L 561.277344 384.574219 L 539.710938 384.574219 Z M 539.710938 362.996094 " fill-opacity="1" fill-rule="nonzero"/><g clip-path="url(#3077cf23e6)"><path fill="#000000" d="M 539.710938 392.570312 L 561.277344 392.570312 L 561.277344 414.148438 L 539.710938 414.148438 Z M 539.710938 392.570312 " fill-opacity="1" fill-rule="nonzero"/></g><path fill="#000000" d="M 571.597656 362.996094 L 593.164062 362.996094 L 593.164062 384.574219 L 571.597656 384.574219 Z M 571.597656 362.996094 " fill-opacity="1" fill-rule="nonzero"/><g clip-path="url(#a9589533e8)"><path fill="#000000" d="M 571.597656 392.570312 L 593.164062 392.570312 L 593.164062 414.148438 L 571.597656 414.148438 Z M 571.597656 392.570312 " fill-opacity="1" fill-rule="nonzero"/></g><g clip-path="url(#6cd7a5342d)"><path fill="#000000" d="M 603.390625 392.570312 L 624.957031 392.570312 L 624.957031 414.148438 L 603.390625 414.148438 Z M 603.390625 392.570312 " fill-opacity="1" fill-rule="nonzero"/></g><g clip-path="url(#87d65d3626)"><path fill="#ffffff" d="M 125.664062 493.109375 L 147.230469 493.109375 L 147.230469 514.6875 L 125.664062 514.6875 Z M 125.664062 493.109375 " fill-opacity="1" fill-rule="nonzero"/></g><path fill="#ffffff" d="M 157.546875 463.535156 L 179.113281 463.535156 L 179.113281 485.113281 L 157.546875 485.113281 Z M 157.546875 463.535156 " fill-opacity="1" fill-rule="nonzero"/><g clip-path="url(#aeadfc3937)"><path fill="#ffffff" d="M 157.546875 493.109375 L 179.113281 493.109375 L 179.113281 514.6875 L 157.546875 514.6875 Z M 157.546875 493.109375 " fill-opacity="1" fill-rule="nonzero"/></g><path fill="#ffffff" d="M 189.433594 433.960938 L 211 433.960938 L 211 455.539062 L 189.433594 455.539062 Z M 189.433594 433.960938 " fill-opacity="1" fill-rule="nonzero"/><path fill="#ffffff" d="M 189.433594 463.535156 L 211 463.535156 L 211 485.113281 L 189.433594 485.113281 Z M 189.433594 463.535156 " fill-opacity="1" fill-rule="nonzero"/><g clip-path="url(#4fba0fa769)"><path fill="#ffffff" d="M 189.433594 493.109375 L 211 493.109375 L 211 514.6875 L 189.433594 514.6875 Z M 189.433594 493.109375 " fill-opacity="1" fill-rule="nonzero"/></g><path fill="#ffffff" d="M 221.226562 404.386719 L 242.792969 404.386719 L 242.792969 425.964844 L 221.226562 425.964844 Z M 221.226562 404.386719 " fill-opacity="1" fill-rule="nonzero"/><path fill="#ffffff" d="M 221.226562 433.960938 L 242.792969 433.960938 L 242.792969 455.539062 L 221.226562 455.539062 Z M 221.226562 433.960938 " fill-opacity="1" fill-rule="nonzero"/><path fill="#ffffff" d="M 221.226562 463.535156 L 242.792969 463.535156 L 242.792969 485.113281 L 221.226562 485.113281 Z M 221.226562 463.535156 " fill-opacity="1" fill-rule="nonzero"/><g clip-path="url(#286faefee3)"><path fill="#ffffff" d="M 221.226562 493.109375 L 242.792969 493.109375 L 242.792969 514.6875 L 221.226562 514.6875 Z M 221.226562 493.109375 " fill-opacity="1" fill-rule="nonzero"/></g><path fill="#ffffff" d="M 253.113281 463.535156 L 274.679688 463.535156 L 274.679688 485.113281 L 253.113281 485.113281 Z M 253.113281 463.535156 " fill-opacity="1" fill-rule="nonzero"/><g clip-path="url(#267902a010)"><path fill="#ffffff" d="M 253.113281 493.109375 L 274.679688 493.109375 L 274.679688 514.6875 L 253.113281 514.6875 Z M 253.113281 493.109375 " fill-opacity="1" fill-rule="nonzero"/></g><path fill="#ffffff" d="M 284.90625 433.960938 L 306.472656 433.960938 L 306.472656 455.539062 L 284.90625 455.539062 Z M 284.90625 433.960938 " fill-opacity="1" fill-rule="nonzero"/><path fill="#ffffff" d="M 284.90625 463.535156 L 306.472656 463.535156 L 306.472656 485.113281 L 284.90625 485.113281 Z M 284.90625 463.535156 " fill-opacity="1" fill-rule="nonzero"/><g clip-path="url(#e1b4ae3cce)"><path fill="#ffffff" d="M 284.90625 493.109375 L 306.472656 493.109375 L 306.472656 514.6875 L 284.90625 514.6875 Z M 284.90625 493.109375 " fill-opacity="1" fill-rule="nonzero"/></g><path fill="#ffffff" d="M 316.789062 463.535156 L 338.355469 463.535156 L 338.355469 485.113281 L 316.789062 485.113281 Z M 316.789062 463.535156 " fill-opacity="1" fill-rule="nonzero"/><g clip-path="url(#6874529909)"><path fill="#ffffff" d="M 316.789062 493.109375 L 338.355469 493.109375 L 338.355469 514.6875 L 316.789062 514.6875 Z M 316.789062 493.109375 " fill-opacity="1" fill-rule="nonzero"/></g><path fill="#ffffff" d="M 348.675781 404.386719 L 370.242188 404.386719 L 370.242188 425.964844 L 348.675781 425.964844 Z M 348.675781 404.386719 " fill-opacity="1" fill-rule="nonzero"/><path fill="#ffffff" d="M 348.675781 433.960938 L 370.242188 433.960938 L 370.242188 455.539062 L 348.675781 455.539062 Z M 348.675781 433.960938 " fill-opacity="1" fill-rule="nonzero"/><path fill="#ffffff" d="M 348.675781 463.535156 L 370.242188 463.535156 L 370.242188 485.113281 L 348.675781 485.113281 Z M 348.675781 463.535156 " fill-opacity="1" fill-rule="nonzero"/><g clip-path="url(#9dc0e50bdf)"><path fill="#ffffff" d="M 348.675781 493.109375 L 370.242188 493.109375 L 370.242188 514.6875 L 348.675781 514.6875 Z M 348.675781 493.109375 " fill-opacity="1" fill-rule="nonzero"/></g><path fill="#ffffff" d="M 380.46875 433.960938 L 402.035156 433.960938 L 402.035156 455.539062 L 380.46875 455.539062 Z M 380.46875 433.960938 " fill-opacity="1" fill-rule="nonzero"/><path fill="#ffffff" d="M 380.46875 463.535156 L 402.035156 463.535156 L 402.035156 485.113281 L 380.46875 485.113281 Z M 380.46875 463.535156 " fill-opacity="1" fill-rule="nonzero"/><g clip-path="url(#28b9fcbbd9)"><path fill="#ffffff" d="M 380.46875 493.109375 L 402.035156 493.109375 L 402.035156 514.6875 L 380.46875 514.6875 Z M 380.46875 493.109375 " fill-opacity="1" fill-rule="nonzero"/></g><g clip-path="url(#0fc13eb2c6)"><path fill="#ffffff" d="M 412.355469 374.722656 L 433.921875 374.722656 L 433.921875 396.296875 L 412.355469 396.296875 Z M 412.355469 374.722656 " fill-opacity="1" fill-rule="nonzero"/></g><path fill="#ffffff" d="M 412.355469 404.386719 L 433.921875 404.386719 L 433.921875 425.964844 L 412.355469 425.964844 Z M 412.355469 404.386719 " fill-opacity="1" fill-rule="nonzero"/><path fill="#ffffff" d="M 412.355469 433.960938 L 433.921875 433.960938 L 433.921875 455.539062 L 412.355469 455.539062 Z M 412.355469 433.960938 " fill-opacity="1" fill-rule="nonzero"/><path fill="#ffffff" d="M 412.355469 463.535156 L 433.921875 463.535156 L 433.921875 485.113281 L 412.355469 485.113281 Z M 412.355469 463.535156 " fill-opacity="1" fill-rule="nonzero"/><g clip-path="url(#b78da9b6a1)"><path fill="#ffffff" d="M 412.355469 493.109375 L 433.921875 493.109375 L 433.921875 514.6875 L 412.355469 514.6875 Z M 412.355469 493.109375 " fill-opacity="1" fill-rule="nonzero"/></g><path fill="#ffffff" d="M 444.148438 404.386719 L 465.714844 404.386719 L 465.714844 425.964844 L 444.148438 425.964844 Z M 444.148438 404.386719 " fill-opacity="1" fill-rule="nonzero"/><path fill="#ffffff" d="M 444.148438 433.960938 L 465.714844 433.960938 L 465.714844 455.539062 L 444.148438 455.539062 Z M 444.148438 433.960938 " fill-opacity="1" fill-rule="nonzero"/><path fill="#ffffff" d="M 444.148438 463.535156 L 465.714844 463.535156 L 465.714844 485.113281 L 444.148438 485.113281 Z M 444.148438 463.535156 " fill-opacity="1" fill-rule="nonzero"/><g clip-path="url(#f676900947)"><path fill="#ffffff" d="M 444.148438 493.109375 L 465.714844 493.109375 L 465.714844 514.6875 L 444.148438 514.6875 Z M 444.148438 493.109375 " fill-opacity="1" fill-rule="nonzero"/></g><path fill="#ffffff" d="M 476.03125 463.535156 L 497.597656 463.535156 L 497.597656 485.113281 L 476.03125 485.113281 Z M 476.03125 463.535156 " fill-opacity="1" fill-rule="nonzero"/><g clip-path="url(#59cc8a9310)"><path fill="#ffffff" d="M 476.03125 493.109375 L 497.597656 493.109375 L 497.597656 514.6875 L 476.03125 514.6875 Z M 476.03125 493.109375 " fill-opacity="1" fill-rule="nonzero"/></g><path fill="#ffffff" d="M 507.824219 433.960938 L 529.390625 433.960938 L 529.390625 455.539062 L 507.824219 455.539062 Z M 507.824219 433.960938 " fill-opacity="1" fill-rule="nonzero"/><path fill="#ffffff" d="M 507.824219 463.535156 L 529.390625 463.535156 L 529.390625 485.113281 L 507.824219 485.113281 Z M 507.824219 463.535156 " fill-opacity="1" fill-rule="nonzero"/><g clip-path="url(#510c012308)"><path fill="#ffffff" d="M 507.824219 493.109375 L 529.390625 493.109375 L 529.390625 514.6875 L 507.824219 514.6875 Z M 507.824219 493.109375 " fill-opacity="1" fill-rule="nonzero"/></g><path fill="#ffffff" d="M 539.710938 404.386719 L 561.277344 404.386719 L 561.277344 425.964844 L 539.710938 425.964844 Z M 539.710938 404.386719 " fill-opacity="1" fill-rule="nonzero"/><path fill="#ffffff" d="M 539.710938 433.960938 L 561.277344 433.960938 L 561.277344 455.539062 L 539.710938 455.539062 Z M 539.710938 433.960938 " fill-opacity="1" fill-rule="nonzero"/><path fill="#ffffff" d="M 539.710938 463.535156 L 561.277344 463.535156 L 561.277344 485.113281 L 539.710938 485.113281 Z M 539.710938 463.535156 " fill-opacity="1" fill-rule="nonzero"/><g clip-path="url(#b470c92b62)"><path fill="#ffffff" d="M 539.710938 493.109375 L 561.277344 493.109375 L 561.277344 514.6875 L 539.710938 514.6875 Z M 539.710938 493.109375 " fill-opacity="1" fill-rule="nonzero"/></g><path fill="#ffffff" d="M 571.597656 463.535156 L 593.164062 463.535156 L 593.164062 485.113281 L 571.597656 485.113281 Z M 571.597656 463.535156 " fill-opacity="1" fill-rule="nonzero"/><g clip-path="url(#de5f369c1b)"><path fill="#ffffff" d="M 571.597656 493.109375 L 593.164062 493.109375 L 593.164062 514.6875 L 571.597656 514.6875 Z M 571.597656 493.109375 " fill-opacity="1" fill-rule="nonzero"/></g><g clip-path="url(#9feedc93cc)"><path fill="#ffffff" d="M 603.390625 493.109375 L 624.957031 493.109375 L 624.957031 514.6875 L 603.390625 514.6875 Z M 603.390625 493.109375 " fill-opacity="1" fill-rule="nonzero"/></g></svg>