<svg xmlns="http://www.w3.org/2000/svg" xmlns:xlink="http://www.w3.org/1999/xlink" width="1000" zoomAndPan="magnify" viewBox="0 0 750 749.999995" height="1000" preserveAspectRatio="xMidYMid meet" version="1.0"><defs><g/><clipPath id="30b8a66f55"><path d="M 125 300 L 148 300 L 148 322.078125 L 125 322.078125 Z M 125 300 " clip-rule="nonzero"/></clipPath><clipPath id="9dc62fa0af"><path d="M 157 300 L 180 300 L 180 322.078125 L 157 322.078125 Z M 157 300 " clip-rule="nonzero"/></clipPath><clipPath id="0ec01aff8e"><path d="M 189 300 L 211 300 L 211 322.078125 L 189 322.078125 Z M 189 300 " clip-rule="nonzero"/></clipPath><clipPath id="aa8c7bab54"><path d="M 221 300 L 243 300 L 243 322.078125 L 221 322.078125 Z M 221 300 " clip-rule="nonzero"/></clipPath><clipPath id="9a9046e6ad"><path d="M 253 300 L 275 300 L 275 322.078125 L 253 322.078125 Z M 253 300 " clip-rule="nonzero"/></clipPath><clipPath id="17b91e6080"><path d="M 284 300 L 307 300 L 307 322.078125 L 284 322.078125 Z M 284 300 " clip-rule="nonzero"/></clipPath><clipPath id="02a3abaafb"><path d="M 316 300 L 339 300 L 339 322.078125 L 316 322.078125 Z M 316 300 " clip-rule="nonzero"/></clipPath><clipPath id="2d0755e92c"><path d="M 348 300 L 371 300 L 371 322.078125 L 348 322.078125 Z M 348 300 " clip-rule="nonzero"/></clipPath><clipPath id="32192e0ce9"><path d="M 380 300 L 403 300 L 403 322.078125 L 380 322.078125 Z M 380 300 " clip-rule="nonzero"/></clipPath><clipPath id="1122d62e11"><path d="M 412 182.578125 L 434 182.578125 L 434 204 L 412 204 Z M 412 182.578125 " clip-rule="nonzero"/></clipPath><clipPath id="07ff890ff0"><path d="M 412 300 L 434 300 L 434 322.078125 L 412 322.078125 Z M 412 300 " clip-rule="nonzero"/></clipPath><clipPath id="3db5fa46fe"><path d="M 444 300 L 466 300 L 466 322.078125 L 444 322.078125 Z M 444 300 " clip-rule="nonzero"/></clipPath><clipPath id="75847eec81"><path d="M 476 300 L 498 300 L 498 322.078125 L 476 322.078125 Z M 476 300 " clip-rule="nonzero"/></clipPath><clipPath id="291b8a6fb8"><path d="M 507 300 L 530 300 L 530 322.078125 L 507 322.078125 Z M 507 300 " clip-rule="nonzero"/></clipPath><clipPath id="e3e1095578"><path d="M 539 300 L 562 300 L 562 322.078125 L 539 322.078125 Z M 539 300 " clip-rule="nonzero"/></clipPath><clipPath id="0f6b9563b3"><path d="M 571 300 L 594 300 L 594 322.078125 L 571 322.078125 Z M 571 300 " clip-rule="nonzero"/></clipPath><clipPath id="b38ebe3226"><path d="M 603 300 L 625 300 L 625 322.078125 L 603 322.078125 Z M 603 300 " clip-rule="nonzero"/></clipPath><clipPath id="d497ab4c29"><path d="M 125 331 L 148 331 L 148 352.75 L 125 352.75 Z M 125 331 " clip-rule="nonzero"/></clipPath><clipPath id="cda4f4b7d1"><path d="M 157 331 L 180 331 L 180 352.75 L 157 352.75 Z M 157 331 " clip-rule="nonzero"/></clipPath><clipPath id="17016dfc01"><path d="M 189 331 L 211 331 L 211 352.75 L 189 352.75 Z M 189 331 " clip-rule="nonzero"/></clipPath><clipPath id="44a02d7535"><path d="M 221 331 L 243 331 L 243 352.75 L 221 352.75 Z M 221 331 " clip-rule="nonzero"/></clipPath><clipPath id="018d03cafa"><path d="M 253 331 L 275 331 L 275 352.75 L 253 352.75 Z M 253 331 " clip-rule="nonzero"/></clipPath><clipPath id="23b8a3a9c4"><path d="M 284 331 L 307 331 L 307 352.75 L 284 352.75 Z M 284 331 " clip-rule="nonzero"/></clipPath><clipPath id="cdac99b845"><path d="M 316 331 L 339 331 L 339 352.75 L 316 352.75 Z M 316 331 " clip-rule="nonzero"/></clipPath><clipPath id="357aed55a6"><path d="M 348 331 L 371 331 L 371 352.75 L 348 352.75 Z M 348 331 " clip-rule="nonzero"/></clipPath><clipPath id="7979f38111"><path d="M 380 331 L 403 331 L 403 352.75 L 380 352.75 Z M 380 331 " clip-rule="nonzero"/></clipPath><clipPath id="7594c0fa19"><path d="M 412 213.25 L 434 213.25 L 434 235 L 412 235 Z M 412 213.25 " clip-rule="nonzero"/></clipPath><clipPath id="d63f9060e4"><path d="M 412 331 L 434 331 L 434 352.75 L 412 352.75 Z M 412 331 " clip-rule="nonzero"/></clipPath><clipPath id="4301f92666"><path d="M 444 331 L 466 331 L 466 352.75 L 444 352.75 Z M 444 331 " clip-rule="nonzero"/></clipPath><clipPath id="2d85aa11ef"><path d="M 476 331 L 498 331 L 498 352.75 L 476 352.75 Z M 476 331 " clip-rule="nonzero"/></clipPath><clipPath id="726f92c60e"><path d="M 507 331 L 530 331 L 530 352.75 L 507 352.75 Z M 507 331 " clip-rule="nonzero"/></clipPath><clipPath id="4d07bc86d9"><path d="M 539 331 L 562 331 L 562 352.75 L 539 352.75 Z M 539 331 " clip-rule="nonzero"/></clipPath><clipPath id="e8fd719be9"><path d="M 571 331 L 594 331 L 594 352.75 L 571 352.75 Z M 571 331 " clip-rule="nonzero"/></clipPath><clipPath id="d9d369c761"><path d="M 603 331 L 625 331 L 625 352.75 L 603 352.75 Z M 603 331 " clip-rule="nonzero"/></clipPath></defs><g clip-path="url(#30b8a66f55)"><path fill="#ffde59" d="M 125.664062 300.691406 L 147.230469 300.691406 L 147.230469 322.265625 L 125.664062 322.265625 Z M 125.664062 300.691406 " fill-opacity="1" fill-rule="nonzero"/></g><path fill="#ffde59" d="M 157.546875 271.117188 L 179.113281 271.117188 L 179.113281 292.691406 L 157.546875 292.691406 Z M 157.546875 271.117188 " fill-opacity="1" fill-rule="nonzero"/><g clip-path="url(#9dc62fa0af)"><path fill="#ffde59" d="M 157.546875 300.691406 L 179.113281 300.691406 L 179.113281 322.265625 L 157.546875 322.265625 Z M 157.546875 300.691406 " fill-opacity="1" fill-rule="nonzero"/></g><path fill="#ffde59" d="M 189.433594 241.542969 L 211 241.542969 L 211 263.117188 L 189.433594 263.117188 Z M 189.433594 241.542969 " fill-opacity="1" fill-rule="nonzero"/><path fill="#ffde59" d="M 189.433594 271.117188 L 211 271.117188 L 211 292.691406 L 189.433594 292.691406 Z M 189.433594 271.117188 " fill-opacity="1" fill-rule="nonzero"/><g clip-path="url(#0ec01aff8e)"><path fill="#ffde59" d="M 189.433594 300.691406 L 211 300.691406 L 211 322.265625 L 189.433594 322.265625 Z M 189.433594 300.691406 " fill-opacity="1" fill-rule="nonzero"/></g><path fill="#ffde59" d="M 221.226562 211.96875 L 242.792969 211.96875 L 242.792969 233.542969 L 221.226562 233.542969 Z M 221.226562 211.96875 " fill-opacity="1" fill-rule="nonzero"/><path fill="#ffde59" d="M 221.226562 241.542969 L 242.792969 241.542969 L 242.792969 263.117188 L 221.226562 263.117188 Z M 221.226562 241.542969 " fill-opacity="1" fill-rule="nonzero"/><path fill="#ffde59" d="M 221.226562 271.117188 L 242.792969 271.117188 L 242.792969 292.691406 L 221.226562 292.691406 Z M 221.226562 271.117188 " fill-opacity="1" fill-rule="nonzero"/><g clip-path="url(#aa8c7bab54)"><path fill="#ffde59" d="M 221.226562 300.691406 L 242.792969 300.691406 L 242.792969 322.265625 L 221.226562 322.265625 Z M 221.226562 300.691406 " fill-opacity="1" fill-rule="nonzero"/></g><path fill="#ffde59" d="M 253.113281 271.117188 L 274.679688 271.117188 L 274.679688 292.691406 L 253.113281 292.691406 Z M 253.113281 271.117188 " fill-opacity="1" fill-rule="nonzero"/><g clip-path="url(#9a9046e6ad)"><path fill="#ffde59" d="M 253.113281 300.691406 L 274.679688 300.691406 L 274.679688 322.265625 L 253.113281 322.265625 Z M 253.113281 300.691406 " fill-opacity="1" fill-rule="nonzero"/></g><path fill="#ffde59" d="M 284.90625 241.542969 L 306.472656 241.542969 L 306.472656 263.117188 L 284.90625 263.117188 Z M 284.90625 241.542969 " fill-opacity="1" fill-rule="nonzero"/><path fill="#ffde59" d="M 284.90625 271.117188 L 306.472656 271.117188 L 306.472656 292.691406 L 284.90625 292.691406 Z M 284.90625 271.117188 " fill-opacity="1" fill-rule="nonzero"/><g clip-path="url(#17b91e6080)"><path fill="#ffde59" d="M 284.90625 300.691406 L 306.472656 300.691406 L 306.472656 322.265625 L 284.90625 322.265625 Z M 284.90625 300.691406 " fill-opacity="1" fill-rule="nonzero"/></g><path fill="#ffde59" d="M 316.789062 271.117188 L 338.355469 271.117188 L 338.355469 292.691406 L 316.789062 292.691406 Z M 316.789062 271.117188 " fill-opacity="1" fill-rule="nonzero"/><g clip-path="url(#02a3abaafb)"><path fill="#ffde59" d="M 316.789062 300.691406 L 338.355469 300.691406 L 338.355469 322.265625 L 316.789062 322.265625 Z M 316.789062 300.691406 " fill-opacity="1" fill-rule="nonzero"/></g><path fill="#ffde59" d="M 348.675781 211.96875 L 370.242188 211.96875 L 370.242188 233.542969 L 348.675781 233.542969 Z M 348.675781 211.96875 " fill-opacity="1" fill-rule="nonzero"/><path fill="#ffde59" d="M 348.675781 241.542969 L 370.242188 241.542969 L 370.242188 263.117188 L 348.675781 263.117188 Z M 348.675781 241.542969 " fill-opacity="1" fill-rule="nonzero"/><path fill="#ffde59" d="M 348.675781 271.117188 L 370.242188 271.117188 L 370.242188 292.691406 L 348.675781 292.691406 Z M 348.675781 271.117188 " fill-opacity="1" fill-rule="nonzero"/><g clip-path="url(#2d0755e92c)"><path fill="#ffde59" d="M 348.675781 300.691406 L 370.242188 300.691406 L 370.242188 322.265625 L 348.675781 322.265625 Z M 348.675781 300.691406 " fill-opacity="1" fill-rule="nonzero"/></g><path fill="#ffde59" d="M 380.46875 241.542969 L 402.035156 241.542969 L 402.035156 263.117188 L 380.46875 263.117188 Z M 380.46875 241.542969 " fill-opacity="1" fill-rule="nonzero"/><path fill="#ffde59" d="M 380.46875 271.117188 L 402.035156 271.117188 L 402.035156 292.691406 L 380.46875 292.691406 Z M 380.46875 271.117188 " fill-opacity="1" fill-rule="nonzero"/><g clip-path="url(#32192e0ce9)"><path fill="#ffde59" d="M 380.46875 300.691406 L 402.035156 300.691406 L 402.035156 322.265625 L 380.46875 322.265625 Z M 380.46875 300.691406 " fill-opacity="1" fill-rule="nonzero"/></g><g clip-path="url(#1122d62e11)"><path fill="#ffde59" d="M 412.355469 182.300781 L 433.921875 182.300781 L 433.921875 203.875 L 412.355469 203.875 Z M 412.355469 182.300781 " fill-opacity="1" fill-rule="nonzero"/></g><path fill="#ffde59" d="M 412.355469 211.96875 L 433.921875 211.96875 L 433.921875 233.542969 L 412.355469 233.542969 Z M 412.355469 211.96875 " fill-opacity="1" fill-rule="nonzero"/><path fill="#ffde59" d="M 412.355469 241.542969 L 433.921875 241.542969 L 433.921875 263.117188 L 412.355469 263.117188 Z M 412.355469 241.542969 " fill-opacity="1" fill-rule="nonzero"/><path fill="#ffde59" d="M 412.355469 271.117188 L 433.921875 271.117188 L 433.921875 292.691406 L 412.355469 292.691406 Z M 412.355469 271.117188 " fill-opacity="1" fill-rule="nonzero"/><g clip-path="url(#07ff890ff0)"><path fill="#ffde59" d="M 412.355469 300.691406 L 433.921875 300.691406 L 433.921875 322.265625 L 412.355469 322.265625 Z M 412.355469 300.691406 " fill-opacity="1" fill-rule="nonzero"/></g><path fill="#ffde59" d="M 444.148438 211.96875 L 465.714844 211.96875 L 465.714844 233.542969 L 444.148438 233.542969 Z M 444.148438 211.96875 " fill-opacity="1" fill-rule="nonzero"/><path fill="#ffde59" d="M 444.148438 241.542969 L 465.714844 241.542969 L 465.714844 263.117188 L 444.148438 263.117188 Z M 444.148438 241.542969 " fill-opacity="1" fill-rule="nonzero"/><path fill="#ffde59" d="M 444.148438 271.117188 L 465.714844 271.117188 L 465.714844 292.691406 L 444.148438 292.691406 Z M 444.148438 271.117188 " fill-opacity="1" fill-rule="nonzero"/><g clip-path="url(#3db5fa46fe)"><path fill="#ffde59" d="M 444.148438 300.691406 L 465.714844 300.691406 L 465.714844 322.265625 L 444.148438 322.265625 Z M 444.148438 300.691406 " fill-opacity="1" fill-rule="nonzero"/></g><path fill="#ffde59" d="M 476.03125 271.117188 L 497.597656 271.117188 L 497.597656 292.691406 L 476.03125 292.691406 Z M 476.03125 271.117188 " fill-opacity="1" fill-rule="nonzero"/><g clip-path="url(#75847eec81)"><path fill="#ffde59" d="M 476.03125 300.691406 L 497.597656 300.691406 L 497.597656 322.265625 L 476.03125 322.265625 Z M 476.03125 300.691406 " fill-opacity="1" fill-rule="nonzero"/></g><path fill="#ffde59" d="M 507.824219 241.542969 L 529.390625 241.542969 L 529.390625 263.117188 L 507.824219 263.117188 Z M 507.824219 241.542969 " fill-opacity="1" fill-rule="nonzero"/><path fill="#ffde59" d="M 507.824219 271.117188 L 529.390625 271.117188 L 529.390625 292.691406 L 507.824219 292.691406 Z M 507.824219 271.117188 " fill-opacity="1" fill-rule="nonzero"/><g clip-path="url(#291b8a6fb8)"><path fill="#ffde59" d="M 507.824219 300.691406 L 529.390625 300.691406 L 529.390625 322.265625 L 507.824219 322.265625 Z M 507.824219 300.691406 " fill-opacity="1" fill-rule="nonzero"/></g><path fill="#ffde59" d="M 539.710938 211.96875 L 561.277344 211.96875 L 561.277344 233.542969 L 539.710938 233.542969 Z M 539.710938 211.96875 " fill-opacity="1" fill-rule="nonzero"/><path fill="#ffde59" d="M 539.710938 241.542969 L 561.277344 241.542969 L 561.277344 263.117188 L 539.710938 263.117188 Z M 539.710938 241.542969 " fill-opacity="1" fill-rule="nonzero"/><path fill="#ffde59" d="M 539.710938 271.117188 L 561.277344 271.117188 L 561.277344 292.691406 L 539.710938 292.691406 Z M 539.710938 271.117188 " fill-opacity="1" fill-rule="nonzero"/><g clip-path="url(#e3e1095578)"><path fill="#ffde59" d="M 539.710938 300.691406 L 561.277344 300.691406 L 561.277344 322.265625 L 539.710938 322.265625 Z M 539.710938 300.691406 " fill-opacity="1" fill-rule="nonzero"/></g><path fill="#ffde59" d="M 571.597656 271.117188 L 593.164062 271.117188 L 593.164062 292.691406 L 571.597656 292.691406 Z M 571.597656 271.117188 " fill-opacity="1" fill-rule="nonzero"/><g clip-path="url(#0f6b9563b3)"><path fill="#ffde59" d="M 571.597656 300.691406 L 593.164062 300.691406 L 593.164062 322.265625 L 571.597656 322.265625 Z M 571.597656 300.691406 " fill-opacity="1" fill-rule="nonzero"/></g><g clip-path="url(#b38ebe3226)"><path fill="#ffde59" d="M 603.390625 300.691406 L 624.957031 300.691406 L 624.957031 322.265625 L 603.390625 322.265625 Z M 603.390625 300.691406 " fill-opacity="1" fill-rule="nonzero"/></g><g fill="#ffffff" fill-opacity="1"><g transform="translate(68.611332, 474.972947)"><g><path d="M 17.78125 0 C 37.65625 0 52.226562 -11.785156 52.226562 -32.355469 L 52.226562 -94.832031 L 35.003906 -94.832031 L 35.003906 -33.332031 C 35.003906 -22.382812 28.171875 -15.550781 17.851562 -15.550781 L 2.71875 -15.550781 L 2.71875 0 Z M 17.78125 0 "/></g></g></g><g fill="#ffffff" fill-opacity="1"><g transform="translate(130.391091, 474.972947)"><g><path d="M 38.5625 2.160156 C 50.207031 2.160156 59.6875 -3.136719 64.359375 -12.0625 L 64.359375 0 L 80.398438 0 L 80.398438 -71.683594 L 64.359375 -71.683594 L 64.359375 -59.550781 C 59.757812 -68.476562 50.207031 -73.84375 38.492188 -73.84375 C 19.316406 -73.84375 4.8125 -56.761719 4.8125 -35.839844 C 4.8125 -14.78125 19.175781 2.160156 38.5625 2.160156 Z M 42.605469 -13.457031 C 31.238281 -13.457031 21.546875 -21.894531 21.546875 -35.839844 C 21.546875 -49.300781 31.03125 -58.226562 42.605469 -58.226562 C 54.320312 -58.226562 63.664062 -48.324219 63.664062 -35.839844 C 63.664062 -23.152344 54.390625 -13.457031 42.605469 -13.457031 Z M 42.605469 -13.457031 "/></g></g></g><g fill="#ffffff" fill-opacity="1"><g transform="translate(220.689949, 474.972947)"><g><path d="M 97.761719 -73.84375 C 87.511719 -73.84375 78.796875 -68.683594 72.660156 -57.667969 C 68.683594 -68.195312 60.734375 -73.84375 48.742188 -73.84375 C 38.140625 -73.84375 29.566406 -68.125 25.871094 -60.527344 L 25.660156 -71.683594 L 9.902344 -71.683594 L 9.902344 0 L 26.566406 0 L 26.566406 -36.609375 C 26.566406 -49.507812 34.796875 -58.292969 43.859375 -58.292969 C 53.066406 -58.292969 58.921875 -52.4375 58.921875 -38.28125 L 58.921875 0 L 75.585938 0 L 75.585938 -36.609375 C 75.585938 -49.507812 83.886719 -58.292969 92.878906 -58.292969 C 102.15625 -58.292969 108.011719 -52.4375 108.011719 -38.28125 L 108.011719 0 L 124.675781 0 L 124.675781 -38.628906 C 124.675781 -61.152344 115.753906 -73.84375 97.761719 -73.84375 Z M 97.761719 -73.84375 "/></g></g></g><g fill="#ffffff" fill-opacity="1"><g transform="translate(354.708807, 474.972947)"><g><path d="M 43.300781 2.160156 C 66.730469 2.160156 81.933594 -8.160156 81.933594 -26.566406 C 81.933594 -45.535156 65.753906 -52.4375 48.324219 -55.644531 C 32.425781 -58.226562 24.546875 -61.851562 24.546875 -69.800781 C 24.546875 -75.796875 28.101562 -81.863281 42.464844 -81.863281 C 55.367188 -81.863281 61.015625 -75.9375 61.015625 -68.613281 L 78.375 -68.613281 C 78.375 -85.628906 66.3125 -97.066406 42.675781 -97.066406 C 18.058594 -97.066406 7.183594 -85.28125 7.183594 -69.871094 C 7.183594 -50.207031 26.636719 -44.488281 42.535156 -41.210938 C 55.714844 -38.699219 64.359375 -35.421875 64.359375 -26.636719 C 64.359375 -17.222656 57.457031 -12.480469 43.234375 -12.480469 C 29.84375 -12.480469 22.105469 -19.59375 22.105469 -28.449219 L 4.742188 -28.449219 C 4.742188 -13.597656 15.898438 2.160156 43.300781 2.160156 Z M 43.300781 2.160156 "/></g></g></g><g fill="#ffffff" fill-opacity="1"><g transform="translate(441.033121, 474.972947)"><g><path d="M 78.097656 -37.097656 C 78.097656 -56.832031 63.59375 -73.84375 41.976562 -73.84375 C 20.429688 -73.84375 4.8125 -56.761719 4.8125 -35.839844 C 4.8125 -14.921875 20.429688 2.160156 41.976562 2.160156 C 59.828125 2.160156 72.589844 -9.621094 76.214844 -22.523438 L 57.804688 -22.523438 C 55.367188 -16.457031 50.136719 -12.898438 41.628906 -12.898438 C 31.726562 -12.898438 23.5 -19.664062 21.753906 -31.378906 L 77.75 -31.378906 C 78.027344 -34.027344 78.097656 -35.285156 78.097656 -37.097656 Z M 22.453125 -44.417969 C 25.3125 -54.527344 33.402344 -59.132812 41.90625 -59.132812 C 51.808594 -59.132812 60.175781 -52.4375 60.875 -44.417969 Z M 22.453125 -44.417969 "/></g></g></g><g fill="#ffffff" fill-opacity="1"><g transform="translate(522.964506, 474.972947)"><g><path d="M 35.703125 2.160156 C 52.996094 2.160156 65.824219 -5.507812 65.824219 -21.269531 C 65.824219 -36.46875 54.25 -40.792969 39.398438 -43.023438 C 27.054688 -44.976562 24.40625 -46.71875 24.40625 -52.089844 C 24.40625 -56.410156 27.613281 -60.039062 34.863281 -60.039062 C 42.675781 -60.039062 46.859375 -56.273438 47.207031 -50.972656 L 63.734375 -50.832031 C 63.734375 -64.5 52.089844 -73.84375 34.796875 -73.84375 C 17.292969 -73.84375 7.808594 -64.917969 7.808594 -51.738281 C 7.808594 -36.886719 19.664062 -31.378906 33.46875 -29.566406 C 43.234375 -28.101562 48.601562 -26.359375 48.601562 -20.292969 C 48.601562 -14.851562 44.558594 -11.226562 35.839844 -11.226562 C 26.21875 -11.226562 21.335938 -16.175781 21.058594 -22.730469 L 4.882812 -22.800781 C 4.882812 -10.179688 14.644531 2.160156 35.703125 2.160156 Z M 35.703125 2.160156 "/></g></g></g><g fill="#ffffff" fill-opacity="1"><g transform="translate(592.832835, 474.972947)"><g><path d="M 26.777344 0 L 26.777344 -36.609375 C 26.777344 -49.507812 35.839844 -58.292969 45.742188 -58.292969 C 55.921875 -58.292969 62.339844 -52.507812 62.339844 -38.28125 L 62.339844 0 L 79.214844 0 L 79.214844 -38.628906 C 79.214844 -61.152344 69.660156 -73.84375 50.414062 -73.84375 C 39.398438 -73.84375 30.820312 -68.753906 26.359375 -60.945312 L 26.777344 -68.964844 L 26.777344 -98.179688 L 9.902344 -98.179688 L 9.902344 0 Z M 26.777344 0 "/></g></g></g><g clip-path="url(#d497ab4c29)"><path fill="#ffffff" d="M 125.664062 331.359375 L 147.230469 331.359375 L 147.230469 352.9375 L 125.664062 352.9375 Z M 125.664062 331.359375 " fill-opacity="1" fill-rule="nonzero"/></g><path fill="#ffffff" d="M 157.546875 301.785156 L 179.113281 301.785156 L 179.113281 323.363281 L 157.546875 323.363281 Z M 157.546875 301.785156 " fill-opacity="1" fill-rule="nonzero"/><g clip-path="url(#cda4f4b7d1)"><path fill="#ffffff" d="M 157.546875 331.359375 L 179.113281 331.359375 L 179.113281 352.9375 L 157.546875 352.9375 Z M 157.546875 331.359375 " fill-opacity="1" fill-rule="nonzero"/></g><path fill="#ffffff" d="M 189.433594 272.210938 L 211 272.210938 L 211 293.789062 L 189.433594 293.789062 Z M 189.433594 272.210938 " fill-opacity="1" fill-rule="nonzero"/><path fill="#ffffff" d="M 189.433594 301.785156 L 211 301.785156 L 211 323.363281 L 189.433594 323.363281 Z M 189.433594 301.785156 " fill-opacity="1" fill-rule="nonzero"/><g clip-path="url(#17016dfc01)"><path fill="#ffffff" d="M 189.433594 331.359375 L 211 331.359375 L 211 352.9375 L 189.433594 352.9375 Z M 189.433594 331.359375 " fill-opacity="1" fill-rule="nonzero"/></g><path fill="#ffffff" d="M 221.226562 242.636719 L 242.792969 242.636719 L 242.792969 264.214844 L 221.226562 264.214844 Z M 221.226562 242.636719 " fill-opacity="1" fill-rule="nonzero"/><path fill="#ffffff" d="M 221.226562 272.210938 L 242.792969 272.210938 L 242.792969 293.789062 L 221.226562 293.789062 Z M 221.226562 272.210938 " fill-opacity="1" fill-rule="nonzero"/><path fill="#ffffff" d="M 221.226562 301.785156 L 242.792969 301.785156 L 242.792969 323.363281 L 221.226562 323.363281 Z M 221.226562 301.785156 " fill-opacity="1" fill-rule="nonzero"/><g clip-path="url(#44a02d7535)"><path fill="#ffffff" d="M 221.226562 331.359375 L 242.792969 331.359375 L 242.792969 352.9375 L 221.226562 352.9375 Z M 221.226562 331.359375 " fill-opacity="1" fill-rule="nonzero"/></g><path fill="#ffffff" d="M 253.113281 301.785156 L 274.679688 301.785156 L 274.679688 323.363281 L 253.113281 323.363281 Z M 253.113281 301.785156 " fill-opacity="1" fill-rule="nonzero"/><g clip-path="url(#018d03cafa)"><path fill="#ffffff" d="M 253.113281 331.359375 L 274.679688 331.359375 L 274.679688 352.9375 L 253.113281 352.9375 Z M 253.113281 331.359375 " fill-opacity="1" fill-rule="nonzero"/></g><path fill="#ffffff" d="M 284.90625 272.210938 L 306.472656 272.210938 L 306.472656 293.789062 L 284.90625 293.789062 Z M 284.90625 272.210938 " fill-opacity="1" fill-rule="nonzero"/><path fill="#ffffff" d="M 284.90625 301.785156 L 306.472656 301.785156 L 306.472656 323.363281 L 284.90625 323.363281 Z M 284.90625 301.785156 " fill-opacity="1" fill-rule="nonzero"/><g clip-path="url(#23b8a3a9c4)"><path fill="#ffffff" d="M 284.90625 331.359375 L 306.472656 331.359375 L 306.472656 352.9375 L 284.90625 352.9375 Z M 284.90625 331.359375 " fill-opacity="1" fill-rule="nonzero"/></g><path fill="#ffffff" d="M 316.789062 301.785156 L 338.355469 301.785156 L 338.355469 323.363281 L 316.789062 323.363281 Z M 316.789062 301.785156 " fill-opacity="1" fill-rule="nonzero"/><g clip-path="url(#cdac99b845)"><path fill="#ffffff" d="M 316.789062 331.359375 L 338.355469 331.359375 L 338.355469 352.9375 L 316.789062 352.9375 Z M 316.789062 331.359375 " fill-opacity="1" fill-rule="nonzero"/></g><path fill="#ffffff" d="M 348.675781 242.636719 L 370.242188 242.636719 L 370.242188 264.214844 L 348.675781 264.214844 Z M 348.675781 242.636719 " fill-opacity="1" fill-rule="nonzero"/><path fill="#ffffff" d="M 348.675781 272.210938 L 370.242188 272.210938 L 370.242188 293.789062 L 348.675781 293.789062 Z M 348.675781 272.210938 " fill-opacity="1" fill-rule="nonzero"/><path fill="#ffffff" d="M 348.675781 301.785156 L 370.242188 301.785156 L 370.242188 323.363281 L 348.675781 323.363281 Z M 348.675781 301.785156 " fill-opacity="1" fill-rule="nonzero"/><g clip-path="url(#357aed55a6)"><path fill="#ffffff" d="M 348.675781 331.359375 L 370.242188 331.359375 L 370.242188 352.9375 L 348.675781 352.9375 Z M 348.675781 331.359375 " fill-opacity="1" fill-rule="nonzero"/></g><path fill="#ffffff" d="M 380.46875 272.210938 L 402.035156 272.210938 L 402.035156 293.789062 L 380.46875 293.789062 Z M 380.46875 272.210938 " fill-opacity="1" fill-rule="nonzero"/><path fill="#ffffff" d="M 380.46875 301.785156 L 402.035156 301.785156 L 402.035156 323.363281 L 380.46875 323.363281 Z M 380.46875 301.785156 " fill-opacity="1" fill-rule="nonzero"/><g clip-path="url(#7979f38111)"><path fill="#ffffff" d="M 380.46875 331.359375 L 402.035156 331.359375 L 402.035156 352.9375 L 380.46875 352.9375 Z M 380.46875 331.359375 " fill-opacity="1" fill-rule="nonzero"/></g><g clip-path="url(#7594c0fa19)"><path fill="#ffffff" d="M 412.355469 212.972656 L 433.921875 212.972656 L 433.921875 234.546875 L 412.355469 234.546875 Z M 412.355469 212.972656 " fill-opacity="1" fill-rule="nonzero"/></g><path fill="#ffffff" d="M 412.355469 242.636719 L 433.921875 242.636719 L 433.921875 264.214844 L 412.355469 264.214844 Z M 412.355469 242.636719 " fill-opacity="1" fill-rule="nonzero"/><path fill="#ffffff" d="M 412.355469 272.210938 L 433.921875 272.210938 L 433.921875 293.789062 L 412.355469 293.789062 Z M 412.355469 272.210938 " fill-opacity="1" fill-rule="nonzero"/><path fill="#ffffff" d="M 412.355469 301.785156 L 433.921875 301.785156 L 433.921875 323.363281 L 412.355469 323.363281 Z M 412.355469 301.785156 " fill-opacity="1" fill-rule="nonzero"/><g clip-path="url(#d63f9060e4)"><path fill="#ffffff" d="M 412.355469 331.359375 L 433.921875 331.359375 L 433.921875 352.9375 L 412.355469 352.9375 Z M 412.355469 331.359375 " fill-opacity="1" fill-rule="nonzero"/></g><path fill="#ffffff" d="M 444.148438 242.636719 L 465.714844 242.636719 L 465.714844 264.214844 L 444.148438 264.214844 Z M 444.148438 242.636719 " fill-opacity="1" fill-rule="nonzero"/><path fill="#ffffff" d="M 444.148438 272.210938 L 465.714844 272.210938 L 465.714844 293.789062 L 444.148438 293.789062 Z M 444.148438 272.210938 " fill-opacity="1" fill-rule="nonzero"/><path fill="#ffffff" d="M 444.148438 301.785156 L 465.714844 301.785156 L 465.714844 323.363281 L 444.148438 323.363281 Z M 444.148438 301.785156 " fill-opacity="1" fill-rule="nonzero"/><g clip-path="url(#4301f92666)"><path fill="#ffffff" d="M 444.148438 331.359375 L 465.714844 331.359375 L 465.714844 352.9375 L 444.148438 352.9375 Z M 444.148438 331.359375 " fill-opacity="1" fill-rule="nonzero"/></g><path fill="#ffffff" d="M 476.03125 301.785156 L 497.597656 301.785156 L 497.597656 323.363281 L 476.03125 323.363281 Z M 476.03125 301.785156 " fill-opacity="1" fill-rule="nonzero"/><g clip-path="url(#2d85aa11ef)"><path fill="#ffffff" d="M 476.03125 331.359375 L 497.597656 331.359375 L 497.597656 352.9375 L 476.03125 352.9375 Z M 476.03125 331.359375 " fill-opacity="1" fill-rule="nonzero"/></g><path fill="#ffffff" d="M 507.824219 272.210938 L 529.390625 272.210938 L 529.390625 293.789062 L 507.824219 293.789062 Z M 507.824219 272.210938 " fill-opacity="1" fill-rule="nonzero"/><path fill="#ffffff" d="M 507.824219 301.785156 L 529.390625 301.785156 L 529.390625 323.363281 L 507.824219 323.363281 Z M 507.824219 301.785156 " fill-opacity="1" fill-rule="nonzero"/><g clip-path="url(#726f92c60e)"><path fill="#ffffff" d="M 507.824219 331.359375 L 529.390625 331.359375 L 529.390625 352.9375 L 507.824219 352.9375 Z M 507.824219 331.359375 " fill-opacity="1" fill-rule="nonzero"/></g><path fill="#ffffff" d="M 539.710938 242.636719 L 561.277344 242.636719 L 561.277344 264.214844 L 539.710938 264.214844 Z M 539.710938 242.636719 " fill-opacity="1" fill-rule="nonzero"/><path fill="#ffffff" d="M 539.710938 272.210938 L 561.277344 272.210938 L 561.277344 293.789062 L 539.710938 293.789062 Z M 539.710938 272.210938 " fill-opacity="1" fill-rule="nonzero"/><path fill="#ffffff" d="M 539.710938 301.785156 L 561.277344 301.785156 L 561.277344 323.363281 L 539.710938 323.363281 Z M 539.710938 301.785156 " fill-opacity="1" fill-rule="nonzero"/><g clip-path="url(#4d07bc86d9)"><path fill="#ffffff" d="M 539.710938 331.359375 L 561.277344 331.359375 L 561.277344 352.9375 L 539.710938 352.9375 Z M 539.710938 331.359375 " fill-opacity="1" fill-rule="nonzero"/></g><path fill="#ffffff" d="M 571.597656 301.785156 L 593.164062 301.785156 L 593.164062 323.363281 L 571.597656 323.363281 Z M 571.597656 301.785156 " fill-opacity="1" fill-rule="nonzero"/><g clip-path="url(#e8fd719be9)"><path fill="#ffffff" d="M 571.597656 331.359375 L 593.164062 331.359375 L 593.164062 352.9375 L 571.597656 352.9375 Z M 571.597656 331.359375 " fill-opacity="1" fill-rule="nonzero"/></g><g clip-path="url(#d9d369c761)"><path fill="#ffffff" d="M 603.390625 331.359375 L 624.957031 331.359375 L 624.957031 352.9375 L 603.390625 352.9375 Z M 603.390625 331.359375 " fill-opacity="1" fill-rule="nonzero"/></g></svg>